<svg version="1.1" xmlns="http://www.w3.org/2000/svg" xmlns:xlink="http://www.w3.org/1999/xlink" width="800px" height="800px" viewBox="0,0,256,256"><g fill="#ebf9f8" fill-rule="nonzero" stroke="none" stroke-width="1" stroke-linecap="butt" stroke-linejoin="miter" stroke-miterlimit="10" stroke-dasharray="" stroke-dashoffset="0" font-family="none" font-weight="none" font-size="none" text-anchor="none" style="mix-blend-mode: normal"><path d="M0,256v-256h256v256z" id="bgRectangle"></path></g><g fill="#37c3bf" fill-rule="nonzero" stroke="none" stroke-width="1" stroke-linecap="butt" stroke-linejoin="miter" stroke-miterlimit="10" stroke-dasharray="" stroke-dashoffset="0" font-family="none" font-weight="none" font-size="none" text-anchor="none" style="mix-blend-mode: normal"><g transform="translate(13.47368,-1.11832) scale(13.47368,13.47368)"><path d="M16.417,9.583c0,4.37244 -3.54456,7.917 -7.917,7.917c-4.37244,0 -7.917,-3.54456 -7.917,-7.917c0,-4.37244 3.54456,-7.917 7.917,-7.917c4.37244,0 7.917,3.54456 7.917,7.917zM12.132,4.889c-0.00055,-0.17485 -0.14215,-0.31645 -0.317,-0.317h-6.635c-0.17485,0.00055 -0.31645,0.14215 -0.317,0.317v9.367c0.0011,0.17446 0.14254,0.31545 0.317,0.316h6.634c0.17446,-0.00055 0.3159,-0.14154 0.317,-0.316zM5.656,5.364h5.684v1.915h-5.684zM6.836,8.894c0.00027,-0.1471 -0.05798,-0.28827 -0.16191,-0.39238c-0.10392,-0.10411 -0.24499,-0.16262 -0.39209,-0.16262h-0.002c-0.30597,0 -0.554,0.24803 -0.554,0.554c0,0.30597 0.24803,0.554 0.554,0.554h0.002c0.30597,0 0.554,-0.24803 0.554,-0.554zM6.836,10.754c0.00027,-0.1471 -0.05798,-0.28827 -0.16191,-0.39238c-0.10392,-0.10411 -0.24499,-0.16262 -0.39209,-0.16262h-0.002c-0.30597,0 -0.554,0.24803 -0.554,0.554c0,0.30597 0.24803,0.554 0.554,0.554h0.002c0.30597,0 0.554,-0.24803 0.554,-0.554zM6.836,12.614c0.00027,-0.1471 -0.05798,-0.28827 -0.16191,-0.39238c-0.10392,-0.10411 -0.24499,-0.16262 -0.39209,-0.16262h-0.002c-0.30597,0 -0.554,0.24803 -0.554,0.554c0,0.30597 0.24803,0.554 0.554,0.554h0.002c0.30597,0 0.554,-0.24803 0.554,-0.554zM8.982,10.754c0.00027,-0.1471 -0.05798,-0.28827 -0.16191,-0.39238c-0.10392,-0.10411 -0.24499,-0.16262 -0.39209,-0.16262h-0.002c-0.30597,0 -0.554,0.24803 -0.554,0.554c0,0.30597 0.24803,0.554 0.554,0.554h0.002c0.30597,0 0.554,-0.24803 0.554,-0.554zM8.982,12.614c0.00027,-0.1471 -0.05798,-0.28827 -0.16191,-0.39238c-0.10392,-0.10411 -0.24499,-0.16262 -0.39209,-0.16262h-0.002c-0.30597,0 -0.554,0.24803 -0.554,0.554c0,0.30597 0.24803,0.554 0.554,0.554h0.002c0.30597,0 0.554,-0.24803 0.554,-0.554zM9.016,8.894c0.00027,-0.1471 -0.05798,-0.28827 -0.16191,-0.39238c-0.10392,-0.10411 -0.24499,-0.16262 -0.39209,-0.16262h-0.002c-0.30597,0 -0.554,0.24803 -0.554,0.554c0,0.30597 0.24803,0.554 0.554,0.554h0.003c0.30597,0 0.554,-0.24803 0.554,-0.554zM11.196,8.894c0.00027,-0.14728 -0.05812,-0.2886 -0.16226,-0.39274c-0.10414,-0.10414 -0.24546,-0.16253 -0.39274,-0.16226h-0.002c-0.30597,0 -0.554,0.24803 -0.554,0.554c0,0.30597 0.24803,0.554 0.554,0.554h0.002c0.30597,0 0.554,-0.24803 0.554,-0.554zM11.196,12.614v-1.894c0,-0.30652 -0.24848,-0.555 -0.555,-0.555c-0.30652,0 -0.555,0.24848 -0.555,0.555v1.893c0,0.30652 0.24848,0.555 0.555,0.555c0.30652,0 0.555,-0.24848 0.555,-0.555z"></path></g></g></svg>