<svg version="1.1" xmlns="http://www.w3.org/2000/svg" xmlns:xlink="http://www.w3.org/1999/xlink" width="505px" height="505px" viewBox="0,0,256,256"><g fill="#ebf9f8" fill-rule="nonzero" stroke="none" stroke-width="1" stroke-linecap="butt" stroke-linejoin="miter" stroke-miterlimit="10" stroke-dasharray="" stroke-dashoffset="0" font-family="none" font-weight="none" font-size="none" text-anchor="none" style="mix-blend-mode: normal"><path d="M0,256v-256h256v256z" id="bgRectangle"></path></g><g fill="none" fill-rule="nonzero" stroke="none" stroke-width="1" stroke-linecap="butt" stroke-linejoin="miter" stroke-miterlimit="10" stroke-dasharray="" stroke-dashoffset="0" font-family="none" font-weight="none" font-size="none" text-anchor="none" style="mix-blend-mode: normal"><g transform="scale(0.50693,0.50693)"><circle cx="252.5" cy="252.5" r="252.5" fill="#37c3bf"></circle><path d="M371.9,424.1h-238.8c-3.2,0 -5.7,-2.6 -5.7,-5.7v-331.8c0,-3.2 2.6,-5.7 5.7,-5.7h238.7c3.2,0 5.7,2.6 5.7,5.7v331.7c0.1,3.2 -2.5,5.8 -5.6,5.8z" fill="#ffffff"></path><rect x="155.9" y="127.7" width="193.3" height="141.6" fill="#54c0eb"></rect><g fill="#ced5e0"><path d="M210.1,316.1h-53.3c-0.5,0 -0.9,-0.4 -0.9,-0.9v-20.8c0,-0.5 0.4,-0.9 0.9,-0.9h53.3c0.5,0 0.9,0.4 0.9,0.9v20.8c0,0.4 -0.4,0.9 -0.9,0.9z"></path><path d="M210.1,355.6h-53.3c-0.5,0 -0.9,-0.4 -0.9,-0.9v-20.8c0,-0.5 0.4,-0.9 0.9,-0.9h53.3c0.5,0 0.9,0.4 0.9,0.9v20.8c0,0.5 -0.4,0.9 -0.9,0.9z"></path><path d="M210.1,395.1h-53.3c-0.5,0 -0.9,-0.4 -0.9,-0.9v-20.8c0,-0.5 0.4,-0.9 0.9,-0.9h53.3c0.5,0 0.9,0.4 0.9,0.9v20.8c0,0.5 -0.4,0.9 -0.9,0.9z"></path><path d="M279.1,316.1h-53.3c-0.5,0 -0.9,-0.4 -0.9,-0.9v-20.8c0,-0.5 0.4,-0.9 0.9,-0.9h53.3c0.5,0 0.9,0.4 0.9,0.9v20.8c0.1,0.4 -0.4,0.9 -0.9,0.9z"></path><path d="M279.1,355.6h-53.3c-0.5,0 -0.9,-0.4 -0.9,-0.9v-20.8c0,-0.5 0.4,-0.9 0.9,-0.9h53.3c0.5,0 0.9,0.4 0.9,0.9v20.8c0.1,0.5 -0.4,0.9 -0.9,0.9z"></path><path d="M279.1,395.1h-53.3c-0.5,0 -0.9,-0.4 -0.9,-0.9v-20.8c0,-0.5 0.4,-0.9 0.9,-0.9h53.3c0.5,0 0.9,0.4 0.9,0.9v20.8c0.1,0.5 -0.4,0.9 -0.9,0.9z"></path><path d="M348.2,316.1h-53.3c-0.5,0 -0.9,-0.4 -0.9,-0.9v-20.8c0,-0.5 0.4,-0.9 0.9,-0.9h53.3c0.5,0 0.9,0.4 0.9,0.9v20.8c0,0.4 -0.4,0.9 -0.9,0.9z"></path><path d="M348.2,355.6h-53.3c-0.5,0 -0.9,-0.4 -0.9,-0.9v-20.8c0,-0.5 0.4,-0.9 0.9,-0.9h53.3c0.5,0 0.9,0.4 0.9,0.9v20.8c0,0.5 -0.4,0.9 -0.9,0.9z"></path><path d="M348.2,395.1h-53.3c-0.5,0 -0.9,-0.4 -0.9,-0.9v-20.8c0,-0.5 0.4,-0.9 0.9,-0.9h53.3c0.5,0 0.9,0.4 0.9,0.9v20.8c0,0.5 -0.4,0.9 -0.9,0.9z"></path></g><path d="M286.7,109.1h-68.4c-3.1,0 -5.6,-2.5 -5.6,-5.6v0c0,-3.1 2.5,-5.6 5.6,-5.6h68.4c3.1,0 5.6,2.5 5.6,5.6v0c0,3 -2.5,5.6 -5.6,5.6z" fill="#e6e9ee"></path><g fill="#ffffff"><path d="M226.7,191.3c1.8,-2.6 2.8,-5.1 2.8,-7.6c0,-2.4 -0.8,-4.5 -2.4,-6.1c-1.6,-1.6 -3.7,-2.4 -6.2,-2.4c-4.6,0 -8.9,3.3 -13.1,9.8l-13.1,-7.7c3.4,-5.3 7.2,-9.3 11.2,-12c4.1,-2.7 9.3,-4.1 15.6,-4.1c6.3,0 11.8,2 16.6,6c4.8,4 7.2,9.4 7.2,16.3c0,3.8 -1,7.4 -2.9,10.8c-1.9,3.4 -5.4,7.8 -10.6,13.2l-13.2,13.7h28.9v14.6h-51.5v-12.1l21.4,-21.9c4.4,-4.4 7.5,-7.9 9.3,-10.5z"></path><path d="M286.3,204.3v-12.7h15.7v12.7h8.2v14.1h-8.2v17.4h-15.7v-17.4h-29.3v-12.4l26,-43.1h17.7l-24.7,41.4h10.3z"></path></g></g></g></svg>