<svg version="1.1" xmlns="http://www.w3.org/2000/svg" xmlns:xlink="http://www.w3.org/1999/xlink" width="512px" height="512px" viewBox="0,0,256,256"><g transform="translate(12.8,12.8) scale(0.9,0.9)"><g fill="#ebf9f8" fill-rule="nonzero" stroke="none" stroke-width="1" stroke-linecap="butt" stroke-linejoin="miter" stroke-miterlimit="10" stroke-dasharray="" stroke-dashoffset="0" font-family="none" font-weight="none" font-size="none" text-anchor="none" style="mix-blend-mode: normal"><path d="M-14.22222,270.22222v-284.44444h284.44444v284.44444z" id="bgRectangle"></path></g><g fill="none" fill-rule="nonzero" stroke="none" stroke-width="1" stroke-linecap="butt" stroke-linejoin="miter" stroke-miterlimit="10" stroke-dasharray="" stroke-dashoffset="0" font-family="none" font-weight="none" font-size="none" text-anchor="none" style="mix-blend-mode: normal"><g transform="translate(0.00025,-0.00025) scale(0.5,0.5)"><g fill="#37c3bf"><path d="M357.039,127.785c-8.205,0 -14.859,-6.654 -14.859,-14.859v-71.751l-8.929,7.967c-6.12,5.464 -15.516,4.93 -20.979,-1.193c-5.465,-6.122 -4.93,-15.514 1.193,-20.979l25.992,-23.197c2.723,-2.43 6.245,-3.773 9.894,-3.773h7.688c8.205,0 14.859,6.654 14.859,14.859v98.068c0,8.205 -6.653,14.858 -14.859,14.858z"></path><path d="M401.967,168.271h-174.69c-8.206,0 -14.859,6.654 -14.859,14.859c0,8.205 6.652,14.859 14.859,14.859h159.831v284.294h-262.218v-284.295h30.073c8.206,0 14.859,-6.654 14.859,-14.859c0,-0.071 -0.01,-0.141 -0.01,-0.212c0,-0.052 0.007,-0.103 0.007,-0.155v-141.51l8.902,7.985c5.645,5.064 14.199,5.064 19.842,0l21.761,-19.52h4.068l21.783,19.19c6.157,5.425 15.545,4.831 20.97,-1.327c5.425,-6.158 4.832,-15.547 -1.327,-20.97l-25.991,-22.9c-2.713,-2.391 -6.205,-3.71 -9.823,-3.71h-15.368c-3.663,0 -7.195,1.352 -9.921,3.798l-16.073,14.417l-16.073,-14.417c-2.727,-2.446 -6.26,-3.798 -9.923,-3.798h-7.686c-8.206,0 -14.859,6.654 -14.859,14.859v153.412h-30.07c-8.206,0 -14.859,6.654 -14.859,14.859v314.012c0,8.205 6.652,14.859 14.859,14.859h291.937c8.205,0 14.859,-6.654 14.859,-14.859v-314.012c-0.001,-8.205 -6.653,-14.859 -14.86,-14.859z"></path></g><rect x="174.768" y="243.253" width="161.931" height="73.001" fill="#cee8fa"></rect><g fill="#37c3bf"><path d="M336.703,331.12h-161.934c-8.206,0 -14.859,-6.654 -14.859,-14.859v-73.004c0,-8.205 6.652,-14.859 14.859,-14.859h161.932c8.205,0 14.859,6.654 14.859,14.859v73.004c0.002,8.205 -6.652,14.859 -14.857,14.859zM189.628,301.402h132.215v-43.287h-132.215z"></path><path d="M229.152,386.491h-43.833c-8.206,0 -14.859,-6.654 -14.859,-14.859c0,-8.205 6.652,-14.859 14.859,-14.859h43.833c8.206,0 14.859,6.654 14.859,14.859c0,8.205 -6.652,14.859 -14.859,14.859z"></path><path d="M229.152,448.898h-43.833c-8.206,0 -14.859,-6.654 -14.859,-14.859c0,-8.205 6.652,-14.859 14.859,-14.859h43.833c8.206,0 14.859,6.654 14.859,14.859c0,8.205 -6.652,14.859 -14.859,14.859z"></path><path d="M337.229,386.491h-43.833c-8.205,0 -14.859,-6.654 -14.859,-14.859c0,-8.205 6.654,-14.859 14.859,-14.859h43.833c8.205,0 14.859,6.654 14.859,14.859c0,8.205 -6.654,14.859 -14.859,14.859z"></path><path d="M337.229,448.898h-43.833c-8.205,0 -14.859,-6.654 -14.859,-14.859c0,-8.205 6.654,-14.859 14.859,-14.859h43.833c8.205,0 14.859,6.654 14.859,14.859c0,8.205 -6.654,14.859 -14.859,14.859z"></path></g></g></g></g></svg>